<svg xmlns="http://www.w3.org/2000/svg" xmlns:xlink="http://www.w3.org/1999/xlink" xmlns:lucid="lucid" width="1760" height="1360"><g transform="translate(0 0)" lucid:page-tab-id="0_0"><path d="M0 0h1760v1360H0z" fill="#fff"/><path d="M640 380h200v120H640zm20 0v120m-20-100h200" stroke="#000" stroke-width="2" fill="#fff"/><use xlink:href="#a" transform="matrix(1,0,0,1,665,405) translate(36.449999999999996 27)"/><use xlink:href="#b" transform="matrix(1,0,0,1,665,405) translate(15.599999999999994 48.6)"/><use xlink:href="#c" transform="matrix(1,0,0,1,665,405) translate(81.55 48.6)"/><use xlink:href="#d" transform="matrix(1,0,0,1,665,405) translate(35.074999999999996 70.2)"/><use xlink:href="#e" transform="matrix(1,0,0,1,665,405) translate(69.07499999999999 70.2)"/><path d="M1040 380h180v120h-180zm18 0v120m-18-102h180" stroke="#000" stroke-width="2" fill="#fff"/><use xlink:href="#f" transform="matrix(1,0,0,1,1063,403) translate(15.574999999999996 17.19999999999999)"/><use xlink:href="#g" transform="matrix(1,0,0,1,1063,403) translate(35.15 38.79999999999999)"/><use xlink:href="#h" transform="matrix(1,0,0,1,1063,403) translate(66.1 38.79999999999999)"/><use xlink:href="#c" transform="matrix(1,0,0,1,1063,403) translate(39.574999999999996 60.39999999999999)"/><use xlink:href="#d" transform="matrix(1,0,0,1,1063,403) translate(13.049999999999997 82)"/><use xlink:href="#i" transform="matrix(1,0,0,1,1063,403) translate(47.05 82)"/><path d="M640 620h200v120H640zm20 0v120m-20-100h200" stroke="#000" stroke-width="2" fill="#fff"/><use xlink:href="#j" transform="matrix(1,0,0,1,665,645) translate(-1.4500000000000028 37.8)"/><use xlink:href="#d" transform="matrix(1,0,0,1,665,645) translate(52 59.4)"/><use xlink:href="#k" transform="matrix(1,0,0,1,665,645) translate(86 59.4)"/><path d="M941.02 441h-81.78v-2h81.78zm97.98 0h-68.02v-2H1039zM1040 441h-1v-2h1zM858.5 444.64L844.24 440l14.26-4.64z"/><path d="M859.5 446l-18.5-6 18.5-6zm-12.03-6l10.03 3.26v-6.52z"/><use xlink:href="#l" transform="matrix(1,0,0,1,941.025,429.2) translate(0 14.4)"/><path d="M741 619h-2v-38.87h2zm0-60.47h-2v-39.3h2zM741 620h-2v-1h2zM744.64 518.5h-9.28l4.64-14.26z"/><path d="M746 519.5h-12l6-18.5zm-9.26-2h6.52L740 507.47z"/><use xlink:href="#m" transform="matrix(1,0,0,1,727.5,558.5333333333334) translate(0 14.4)"/><path d="M320 380h160v120H320zm16 0v120m-16-104h160" stroke="#000" stroke-width="2" fill="#fff"/><use xlink:href="#n" transform="matrix(1,0,0,1,341,401) translate(28.574999999999996 39.8)"/><use xlink:href="#d" transform="matrix(1,0,0,1,341,401) translate(18.549999999999997 61.4)"/><use xlink:href="#o" transform="matrix(1,0,0,1,341,401) translate(52.55 61.4)"/><path d="M547.5 441H481v-2h66.5zm73.26 0H572.5v-2h48.26zM481 441h-1v-2h1zM635.76 440l-14.26 4.64v-9.28z"/><path d="M639 440l-18.5 6v-12zm-16.5 3.26l10.03-3.26-10.03-3.26z"/><g><use xlink:href="#m" transform="matrix(1,0,0,1,547.5,429.2) translate(0 14.4)"/></g><path d="M650 140h180v120H650zm18 0v120m-18-102h180" stroke="#000" stroke-width="2" fill="#fff"/><g><use xlink:href="#p" transform="matrix(1,0,0,1,673,163) translate(31.074999999999996 28)"/><use xlink:href="#q" transform="matrix(1,0,0,1,673,163) translate(6.599999999999994 49.6)"/><use xlink:href="#c" transform="matrix(1,0,0,1,673,163) translate(72.55 49.6)"/><use xlink:href="#d" transform="matrix(1,0,0,1,673,163) translate(26.074999999999996 71.2)"/><use xlink:href="#e" transform="matrix(1,0,0,1,673,163) translate(60.074999999999996 71.2)"/></g><path d="M741 360.76h-2v-36.63h2zm0-58.23h-2V261h2zM741 261h-2v-1h2zM740 375.76l-4.64-14.26h9.28z"/><path d="M740 379l-6-18.5h12zm-3.26-16.5l3.26 10.03 3.26-10.03z"/><g><use xlink:href="#m" transform="matrix(1,0,0,1,727.5,302.5333333333333) translate(0 14.4)"/></g><defs><path d="M127-220V0H93v-220H8v-28h204v28h-85" id="r"/><path d="M114-163C36-179 61-72 57 0H25l-1-190h30c1 12-1 29 2 39 6-27 23-49 58-41v29" id="s"/><path d="M141-36C126-15 110 5 73 4 37 3 15-17 15-53c-1-64 63-63 125-63 3-35-9-54-41-54-24 1-41 7-42 31l-33-3c5-37 33-52 76-52 45 0 72 20 72 64v82c-1 20 7 32 28 27v20c-31 9-61-2-59-35zM48-53c0 20 12 33 32 33 41-3 63-29 60-74-43 2-92-5-92 41" id="t"/><path d="M24-231v-30h32v30H24zM24 0v-190h32V0H24" id="u"/><path d="M117-194c89-4 53 116 60 194h-32v-121c0-31-8-49-39-48C34-167 62-67 57 0H25l-1-190h30c1 10-1 24 2 32 11-22 29-35 61-36" id="v"/><path d="M-5 72V49h209v23H-5" id="w"/><path d="M232-93c-1 65-40 97-104 97C67 4 28-28 28-90v-158h33c8 89-33 224 67 224 102 0 64-133 71-224h33v155" id="x"/><path d="M135-143c-3-34-86-38-87 0 15 53 115 12 119 90S17 21 10-45l28-5c4 36 97 45 98 0-10-56-113-15-118-90-4-57 82-63 122-42 12 7 21 19 24 35" id="y"/><path d="M100-194c63 0 86 42 84 106H49c0 40 14 67 53 68 26 1 43-12 49-29l28 8c-11 28-37 45-77 45C44 4 14-33 15-96c1-61 26-98 85-98zm52 81c6-60-76-77-97-28-3 7-6 17-6 28h103" id="z"/><g id="a"><use transform="matrix(0.05,0,0,0.05,0,0)" xlink:href="#r"/><use transform="matrix(0.05,0,0,0.05,10.3,0)" xlink:href="#s"/><use transform="matrix(0.05,0,0,0.05,16.25,0)" xlink:href="#t"/><use transform="matrix(0.05,0,0,0.05,26.25,0)" xlink:href="#u"/><use transform="matrix(0.05,0,0,0.05,30.200000000000003,0)" xlink:href="#v"/><use transform="matrix(0.05,0,0,0.05,40.2,0)" xlink:href="#w"/><use transform="matrix(0.05,0,0,0.05,50.2,0)" xlink:href="#x"/><use transform="matrix(0.05,0,0,0.05,63.150000000000006,0)" xlink:href="#y"/><use transform="matrix(0.05,0,0,0.05,72.15,0)" xlink:href="#z"/><use transform="matrix(0.05,0,0,0.05,82.15,0)" xlink:href="#s"/><use transform="matrix(0.05,0,0,0.05,88.10000000000001,0)" xlink:href="#y"/></g><path d="M87 75C49 33 22-17 22-94c0-76 28-126 65-167h31c-38 41-64 92-64 168S80 34 118 75H87" id="A"/><path d="M64 0c3-98 48-159 88-221H18v-27h164v26C143-157 98-101 97 0H64" id="B"/><path d="M54-142c48-35 137-8 131 61C196 18 31 33 14-55l32-4c7 23 22 37 52 37 35-1 51-22 54-58 4-55-73-65-99-34H22l8-134h141v27H59" id="C"/><path d="M68-38c1 34 0 65-14 84H32c9-13 17-26 17-46H33v-38h35" id="D"/><path d="M101-251c68 0 85 55 85 127S166 4 100 4C33 4 14-52 14-124c0-73 17-127 87-127zm-1 229c47 0 54-49 54-102s-4-102-53-102c-51 0-55 48-55 102 0 53 5 102 54 102" id="E"/><g id="b"><use transform="matrix(0.05,0,0,0.05,0,0)" xlink:href="#A"/><use transform="matrix(0.05,0,0,0.05,5.95,0)" xlink:href="#B"/><use transform="matrix(0.05,0,0,0.05,15.949999999999998,0)" xlink:href="#C"/><use transform="matrix(0.05,0,0,0.05,25.950000000000003,0)" xlink:href="#D"/><use transform="matrix(0.05,0,0,0.05,30.950000000000003,0)" xlink:href="#E"/><use transform="matrix(0.05,0,0,0.05,40.95,0)" xlink:href="#E"/><use transform="matrix(0.05,0,0,0.05,50.95,0)" xlink:href="#E"/></g><path d="M233-177c-1 41-23 64-60 70L243 0h-38l-65-103H63V0H30v-248c88 3 205-21 203 71zM63-129c60-2 137 13 137-47 0-61-80-42-137-45v92" id="F"/><path d="M96-169c-40 0-48 33-48 73s9 75 48 75c24 0 41-14 43-38l32 2c-6 37-31 61-74 61-59 0-76-41-82-99-10-93 101-131 147-64 4 7 5 14 7 22l-32 3c-4-21-16-35-41-35" id="G"/><path d="M100-194c62-1 85 37 85 99 1 63-27 99-86 99S16-35 15-95c0-66 28-99 85-99zM99-20c44 1 53-31 53-75 0-43-8-75-51-75s-53 32-53 75 10 74 51 75" id="H"/><path d="M85-194c31 0 48 13 60 33l-1-100h32l1 261h-30c-2-10 0-23-3-31C134-8 116 4 85 4 32 4 16-35 15-94c0-66 23-100 70-100zm9 24c-40 0-46 34-46 75 0 40 6 74 45 74 42 0 51-32 51-76 0-42-9-74-50-73" id="I"/><path d="M33-261c38 41 65 92 65 168S71 34 33 75H2C39 34 66-17 66-93S39-220 2-261h31" id="J"/><g id="c"><use transform="matrix(0.05,0,0,0.05,0,0)" xlink:href="#F"/><use transform="matrix(0.05,0,0,0.05,12.950000000000001,0)" xlink:href="#z"/><use transform="matrix(0.05,0,0,0.05,22.950000000000003,0)" xlink:href="#G"/><use transform="matrix(0.05,0,0,0.05,31.950000000000003,0)" xlink:href="#H"/><use transform="matrix(0.05,0,0,0.05,41.95,0)" xlink:href="#s"/><use transform="matrix(0.05,0,0,0.05,47.900000000000006,0)" xlink:href="#I"/><use transform="matrix(0.05,0,0,0.05,57.900000000000006,0)" xlink:href="#y"/><use transform="matrix(0.05,0,0,0.05,66.9,0)" xlink:href="#J"/></g><path d="M30-248c87 1 191-15 191 75 0 78-77 80-158 76V0H30v-248zm33 125c57 0 124 11 124-50 0-59-68-47-124-48v98" id="K"/><path d="M194 0L95-120 63-95V0H30v-248h33v124l119-124h40L117-140 236 0h-42" id="L"/><path d="M33-154v-36h34v36H33zM33 0v-36h34V0H33" id="M"/><g id="d"><use transform="matrix(0.05,0,0,0.05,0,0)" xlink:href="#K"/><use transform="matrix(0.05,0,0,0.05,12,0)" xlink:href="#L"/><use transform="matrix(0.05,0,0,0.05,24,0)" xlink:href="#M"/></g><path d="M33 0v-248h34V0H33" id="N"/><path d="M30-248c118-7 216 8 213 122C240-48 200 0 122 0H30v-248zM63-27c89 8 146-16 146-99s-60-101-146-95v194" id="O"/><g id="e"><use transform="matrix(0.05,0,0,0.05,0,0)" xlink:href="#x"/><use transform="matrix(0.05,0,0,0.05,12.950000000000001,0)" xlink:href="#y"/><use transform="matrix(0.05,0,0,0.05,21.950000000000003,0)" xlink:href="#z"/><use transform="matrix(0.05,0,0,0.05,31.950000000000003,0)" xlink:href="#s"/><use transform="matrix(0.05,0,0,0.05,37.900000000000006,0)" xlink:href="#w"/><use transform="matrix(0.05,0,0,0.05,47.900000000000006,0)" xlink:href="#N"/><use transform="matrix(0.05,0,0,0.05,52.900000000000006,0)" xlink:href="#O"/></g><path d="M185-189c-5-48-123-54-124 2 14 75 158 14 163 119 3 78-121 87-175 55-17-10-28-26-33-46l33-7c5 56 141 63 141-1 0-78-155-14-162-118-5-82 145-84 179-34 5 7 8 16 11 25" id="P"/><g id="f"><use transform="matrix(0.05,0,0,0.05,0,0)" xlink:href="#x"/><use transform="matrix(0.05,0,0,0.05,12.950000000000001,0)" xlink:href="#y"/><use transform="matrix(0.05,0,0,0.05,21.950000000000003,0)" xlink:href="#z"/><use transform="matrix(0.05,0,0,0.05,31.950000000000003,0)" xlink:href="#s"/><use transform="matrix(0.05,0,0,0.05,37.900000000000006,0)" xlink:href="#w"/><use transform="matrix(0.05,0,0,0.05,47.900000000000006,0)" xlink:href="#P"/><use transform="matrix(0.05,0,0,0.05,59.900000000000006,0)" xlink:href="#z"/><use transform="matrix(0.05,0,0,0.05,69.9,0)" xlink:href="#y"/><use transform="matrix(0.05,0,0,0.05,78.9,0)" xlink:href="#y"/><use transform="matrix(0.05,0,0,0.05,87.9,0)" xlink:href="#u"/><use transform="matrix(0.05,0,0,0.05,91.85000000000001,0)" xlink:href="#H"/><use transform="matrix(0.05,0,0,0.05,101.85000000000001,0)" xlink:href="#v"/><use transform="matrix(0.05,0,0,0.05,111.85000000000001,0)" xlink:href="#y"/></g><path d="M27 0v-27h64v-190l-56 39v-29l58-41h29v221h61V0H27" id="Q"/><g id="g"><use transform="matrix(0.05,0,0,0.05,0,0)" xlink:href="#A"/><use transform="matrix(0.05,0,0,0.05,5.95,0)" xlink:href="#Q"/><use transform="matrix(0.05,0,0,0.05,15.949999999999998,0)" xlink:href="#E"/></g><path d="M240 0l2-218c-23 76-54 145-80 218h-23L58-218 59 0H30v-248h44l77 211c21-75 51-140 76-211h43V0h-30" id="R"/><path d="M24 0v-261h32V0H24" id="S"/><g id="h"><use transform="matrix(0.05,0,0,0.05,0,0)" xlink:href="#R"/><use transform="matrix(0.05,0,0,0.05,14.950000000000001,0)" xlink:href="#u"/><use transform="matrix(0.05,0,0,0.05,18.900000000000002,0)" xlink:href="#S"/><use transform="matrix(0.05,0,0,0.05,22.85,0)" xlink:href="#S"/><use transform="matrix(0.05,0,0,0.05,26.8,0)" xlink:href="#u"/><use transform="matrix(0.05,0,0,0.05,30.75,0)" xlink:href="#H"/><use transform="matrix(0.05,0,0,0.05,40.75,0)" xlink:href="#v"/></g><g id="i"><use transform="matrix(0.05,0,0,0.05,0,0)" xlink:href="#P"/><use transform="matrix(0.05,0,0,0.05,12,0)" xlink:href="#z"/><use transform="matrix(0.05,0,0,0.05,22,0)" xlink:href="#y"/><use transform="matrix(0.05,0,0,0.05,31,0)" xlink:href="#y"/><use transform="matrix(0.05,0,0,0.05,40,0)" xlink:href="#u"/><use transform="matrix(0.05,0,0,0.05,43.95,0)" xlink:href="#H"/><use transform="matrix(0.05,0,0,0.05,53.95,0)" xlink:href="#v"/><use transform="matrix(0.05,0,0,0.05,63.95,0)" xlink:href="#w"/><use transform="matrix(0.05,0,0,0.05,73.95,0)" xlink:href="#N"/><use transform="matrix(0.05,0,0,0.05,78.95,0)" xlink:href="#O"/></g><path d="M205 0l-28-72H64L36 0H1l101-248h38L239 0h-34zm-38-99l-47-123c-12 45-31 82-46 123h93" id="T"/><path d="M177-190C167-65 218 103 67 71c-23-6-38-20-44-43l32-5c15 47 100 32 89-28v-30C133-14 115 1 83 1 29 1 15-40 15-95c0-56 16-97 71-98 29-1 48 16 59 35 1-10 0-23 2-32h30zM94-22c36 0 50-32 50-73 0-42-14-75-50-75-39 0-46 34-46 75s6 73 46 73" id="U"/><path d="M143 4C61 4 22-44 18-125c-5-107 100-154 193-111 17 8 29 25 37 43l-32 9c-13-25-37-40-76-40-61 0-88 39-88 99 0 61 29 100 91 101 35 0 62-11 79-27v-45h-74v-28h105v86C228-13 192 4 143 4" id="V"/><path d="M160-131c35 5 61 23 61 61C221 17 115-2 30 0v-248c76 3 177-17 177 60 0 33-19 50-47 57zm-97-11c50-1 110 9 110-42 0-47-63-36-110-37v79zm0 115c55-2 124 14 124-45 0-56-70-42-124-44v89" id="W"/><path d="M143 0L79-87 56-68V0H24v-261h32v163l83-92h37l-77 82L181 0h-38" id="X"/><path d="M59-47c-2 24 18 29 38 22v24C64 9 27 4 27-40v-127H5v-23h24l9-43h21v43h35v23H59v120" id="Y"/><g id="j"><use transform="matrix(0.05,0,0,0.05,0,0)" xlink:href="#T"/><use transform="matrix(0.05,0,0,0.05,12,0)" xlink:href="#U"/><use transform="matrix(0.05,0,0,0.05,22,0)" xlink:href="#z"/><use transform="matrix(0.05,0,0,0.05,32,0)" xlink:href="#w"/><use transform="matrix(0.05,0,0,0.05,42,0)" xlink:href="#V"/><use transform="matrix(0.05,0,0,0.05,56,0)" xlink:href="#z"/><use transform="matrix(0.05,0,0,0.05,66,0)" xlink:href="#v"/><use transform="matrix(0.05,0,0,0.05,76,0)" xlink:href="#I"/><use transform="matrix(0.05,0,0,0.05,86,0)" xlink:href="#z"/><use transform="matrix(0.05,0,0,0.05,96,0)" xlink:href="#s"/><use transform="matrix(0.05,0,0,0.05,101.95,0)" xlink:href="#w"/><use transform="matrix(0.05,0,0,0.05,111.95,0)" xlink:href="#W"/><use transform="matrix(0.05,0,0,0.05,123.95,0)" xlink:href="#s"/><use transform="matrix(0.05,0,0,0.05,129.9,0)" xlink:href="#t"/><use transform="matrix(0.05,0,0,0.05,139.9,0)" xlink:href="#G"/><use transform="matrix(0.05,0,0,0.05,148.9,0)" xlink:href="#X"/><use transform="matrix(0.05,0,0,0.05,157.9,0)" xlink:href="#z"/><use transform="matrix(0.05,0,0,0.05,167.9,0)" xlink:href="#Y"/></g><g id="k"><use transform="matrix(0.05,0,0,0.05,0,0)" xlink:href="#T"/><use transform="matrix(0.05,0,0,0.05,12,0)" xlink:href="#U"/><use transform="matrix(0.05,0,0,0.05,22,0)" xlink:href="#z"/></g><g id="l"><use transform="matrix(0.05,0,0,0.05,0,0)" xlink:href="#Q"/><use transform="matrix(0.05,0,0,0.05,10,0)" xlink:href="#M"/><use transform="matrix(0.05,0,0,0.05,15,0)" xlink:href="#R"/></g><g id="m"><use transform="matrix(0.05,0,0,0.05,0,0)" xlink:href="#Q"/><use transform="matrix(0.05,0,0,0.05,10,0)" xlink:href="#M"/><use transform="matrix(0.05,0,0,0.05,15,0)" xlink:href="#Q"/></g><path d="M212-179c-10-28-35-45-73-45-59 0-87 40-87 99 0 60 29 101 89 101 43 0 62-24 78-52l27 14C228-24 195 4 139 4 59 4 22-46 18-125c-6-104 99-153 187-111 19 9 31 26 39 46" id="Z"/><path d="M84 4C-5 8 30-112 23-190h32v120c0 31 7 50 39 49 72-2 45-101 50-169h31l1 190h-30c-1-10 1-25-2-33-11 22-28 36-60 37" id="aa"/><g id="n"><use transform="matrix(0.05,0,0,0.05,0,0)" xlink:href="#Z"/><use transform="matrix(0.05,0,0,0.05,12.950000000000001,0)" xlink:href="#H"/><use transform="matrix(0.05,0,0,0.05,22.950000000000003,0)" xlink:href="#aa"/><use transform="matrix(0.05,0,0,0.05,32.95,0)" xlink:href="#v"/><use transform="matrix(0.05,0,0,0.05,42.95,0)" xlink:href="#Y"/><use transform="matrix(0.05,0,0,0.05,47.95,0)" xlink:href="#s"/><use transform="matrix(0.05,0,0,0.05,53.900000000000006,0)" xlink:href="#u"/><use transform="matrix(0.05,0,0,0.05,57.85,0)" xlink:href="#z"/><use transform="matrix(0.05,0,0,0.05,67.85000000000001,0)" xlink:href="#y"/></g><path d="M179-190L93 31C79 59 56 82 12 73V49c39 6 53-20 64-50L1-190h34L92-34l54-156h33" id="ab"/><g id="o"><use transform="matrix(0.05,0,0,0.05,0,0)" xlink:href="#Z"/><use transform="matrix(0.05,0,0,0.05,12.950000000000001,0)" xlink:href="#H"/><use transform="matrix(0.05,0,0,0.05,22.950000000000003,0)" xlink:href="#aa"/><use transform="matrix(0.05,0,0,0.05,32.95,0)" xlink:href="#v"/><use transform="matrix(0.05,0,0,0.05,42.95,0)" xlink:href="#Y"/><use transform="matrix(0.05,0,0,0.05,47.95,0)" xlink:href="#s"/><use transform="matrix(0.05,0,0,0.05,53.900000000000006,0)" xlink:href="#ab"/></g><g id="p"><use transform="matrix(0.05,0,0,0.05,0,0)" xlink:href="#r"/><use transform="matrix(0.05,0,0,0.05,8.950000000000001,0)" xlink:href="#z"/><use transform="matrix(0.05,0,0,0.05,18.950000000000003,0)" xlink:href="#y"/><use transform="matrix(0.05,0,0,0.05,27.950000000000003,0)" xlink:href="#Y"/><use transform="matrix(0.05,0,0,0.05,32.95,0)" xlink:href="#w"/><use transform="matrix(0.05,0,0,0.05,42.95,0)" xlink:href="#x"/><use transform="matrix(0.05,0,0,0.05,55.900000000000006,0)" xlink:href="#y"/><use transform="matrix(0.05,0,0,0.05,64.9,0)" xlink:href="#z"/><use transform="matrix(0.05,0,0,0.05,74.9,0)" xlink:href="#s"/><use transform="matrix(0.05,0,0,0.05,80.85000000000001,0)" xlink:href="#y"/></g><path d="M101-251c82-7 93 87 43 132L82-64C71-53 59-42 53-27h129V0H18c2-99 128-94 128-182 0-28-16-43-45-43s-46 15-49 41l-32-3c6-41 34-60 81-64" id="ac"/><g id="q"><use transform="matrix(0.05,0,0,0.05,0,0)" xlink:href="#A"/><use transform="matrix(0.05,0,0,0.05,5.95,0)" xlink:href="#ac"/><use transform="matrix(0.05,0,0,0.05,15.949999999999998,0)" xlink:href="#C"/><use transform="matrix(0.05,0,0,0.05,25.950000000000003,0)" xlink:href="#D"/><use transform="matrix(0.05,0,0,0.05,30.950000000000003,0)" xlink:href="#E"/><use transform="matrix(0.05,0,0,0.05,40.95,0)" xlink:href="#E"/><use transform="matrix(0.05,0,0,0.05,50.95,0)" xlink:href="#E"/></g></defs></g></svg>